<svg version="1" xmlns="http://www.w3.org/2000/svg" width="682.667" height="682.667" viewBox="0 0 512.000000 512.000000"><path d="M204.7 81.6c-.1.1-3.4.5-7.3.8-26.7 2.5-52.8 18.5-68.6 42l-6 9.1-6.3 1.7c-18.2 5-33.2 16-43.2 31.6-4.3 6.7-6.9 12.8-9.2 21.5l-1.8 6.9-7.1 2.3c-21.1 6.7-37.7 21.3-47.1 41.6-10.4 22.4-9.6 48.6 2.1 69.9 8 14.4 19.6 25.4 34.3 32.5 18.1 8.6-2.4 7.9 221.5 8.1 212.9.1 203.3.3 215-5 11.9-5.4 23.2-17.7 27.5-30.1 2.3-6.8 3.1-21.8 1.5-28.6-3.8-16.1-14-28.8-28.5-35.8-6.3-3-14.4-5.1-19.9-5.1-3.2 0-3.3-.1-6-8.3-6.8-20.7-23.4-37.5-43.2-43.7-7.8-2.4-12.1-3.1-21.2-3.4l-6.3-.2-3.5-6.9c-11.5-22.9-36-41.7-58.9-45.1-2.2-.3-5.6-.9-7.5-1.3-1.9-.4-7.4-.6-12.2-.4l-8.6.3-3.2-5.8c-9-15.8-24.1-30.2-40.5-38.4-5.5-2.8-19.5-8-19.5-7.3 0 .2-1.2 0-2.6-.5-2.9-1.1-22.8-3.1-23.7-2.4zM98.5 369.8c-5.9.3-7.8 1.3-6.8 3.7.3.9 2.9 1.2 8.4 1.1 4.4-.1 8.4.1 8.8.4.4.3.7 12 .6 26 0 22 .2 25.6 1.5 26.1 3.8 1.6 4 .6 4-26.1 0-19.7.3-25.9 1.3-26.2.6-.2 4.7-.3 9-.2 7.5.2 7.7.1 7.7-2.2 0-2.1-.5-2.4-4.2-2.5-2.4 0-8.8-.1-14.3-.2s-12.7-.1-16 .1zM140.8 369.7c-1.7.4-1.8 2.6-1.8 29.2v28.8l2.3-.2c2.2-.2 2.2-.4 2.4-14.3.1-15.6 1.3-19.6 6.1-22.3 4.6-2.6 10.5-2.4 13.8.4l2.9 2.5.2 13.9c.1 7.6.2 15.2.3 17 0 2.4.4 3 1.8 2.8.9-.2 2-.4 2.3-.4.3-.1.5-8 .4-17.6-.1-15.7-.4-17.7-2.1-19.6-5.7-6.3-16.8-6.6-23.1-.7-2.7 2.5-2.5 3.4-2.5-10.4.1-4.8-.2-8.9-.6-9.1-.4-.2-1.5-.2-2.4 0zM183.2 370.6c-1.5 2.7-.2 6.4 2.3 6.4 1.8 0 2.2-.6 2.3-3 .1-3.6-3.1-6-4.6-3.4zM243.8 369.7c-1.6.4-1.8 1.8-1.9 12.1 0 6.4-.1 19.2-.2 28.4-.2 17.9-.5 16.8 4.1 16.8.4 0 .7-3.4.8-7.6.1-7.4.2-7.7 3.7-11 1.9-1.9 3.8-3.4 4.1-3.4.3 0 3.8 4.8 7.7 10.7 4 6 7.3 11 7.5 11.2.2.2 1.5.5 2.9.7 3.4.3 3.3.1-6.5-14.6l-8.1-12.1 7.8-7.4c7.8-7.4 7.8-7.5 4.6-7.5-2.7 0-4.7 1.5-13.3 9.9l-10 9.8-.1-4.6c-.1-2.5-.1-10.6-.1-17.8.1-7.3-.2-13.4-.6-13.6-.4-.2-1.5-.2-2.4 0zM281.5 398.4v28.5l2.2.4c1.2.2 2.5.2 2.8-.1.3-.3.5-6.7.5-14.1v-13.7l15.8.2c8.6.1 16 .2 16.4.3.3 0 .6 6 .6 13.1-.1 7.2.1 13.3.4 13.6.3.2 1.5.6 2.7.9l2.1.4V370h-2.5c-1.9 0-2.5.5-2.6 2.2 0 1.3-.1 6.8-.2 12.3l-.2 10-16.2.1-16.3.1V370h-5.5v28.4zM380.3 398.7c.2 28.1.3 28.8 2.2 28.8 1.5 0 2.1-.8 2.3-3.4.3-3.3.4-3.3 1.8-1.2 3.6 5.1 14.6 7.1 21.1 3.8 7.3-3.8 11.2-13.2 9.9-23.8-1.4-11-8.2-17.9-17.9-17.9-5.4 0-7.9 1-11.9 4.8l-2.8 2.6v-11.2c0-11.2 0-11.2-2.4-11.2h-2.5l.2 28.7zm26.3-7.2c8.8 5.8 7.9 27.2-1.4 31.4-3.3 1.5-9.8 1.3-13.1-.3-4.6-2.4-6.4-6.2-6.9-14.7-.4-6.6-.1-8.3 1.8-11.7 1.2-2.2 3.6-4.7 5.4-5.6 3.8-1.9 10.5-1.5 14.2.9zM184.5 385.9c-1.9.6-2 1.5-2 20.6 0 16.8.2 20.1 1.5 20.6.8.3 2 .5 2.5.2 1.1-.3 1.5-40.7.5-41.6-.3-.2-1.4-.1-2.5.2zM208 387.7c-1.9 1.5-3.9 3.2-4.3 3.8-.5.6-.7.2-.6-1 .3-3.7-.1-4.5-2.1-4.5-1.1 0-2 .3-2.1.7-.1 1.2-.1 33.4 0 37.5.1 2.9.5 3.6 1.9 3.3.9-.2 1.9-.4 2.2-.4.3-.1.5-6.7.5-14.9 0-13.7.2-14.9 2.3-17.9 2.6-3.7 7.7-5.7 12.8-5 7.1 1 8 3.9 7.9 23.9 0 7.6.3 13.9.7 13.9 2.7.5 3.4.3 3.8-.8.9-2.3.2-31.8-.9-34.6-2.6-6.8-15.4-9.2-22.1-4zM336.7 402.6c.3 17.6.9 20.3 5.3 23.5 3.6 2.6 10.6 3 15.8.8 2.3-1 4.2-2.3 4.2-2.9 0-.5.7-1 1.6-1 1.1 0 1.5.6 1.1 2-.5 2 .8 2.9 3.3 2.3 1.3-.3 1.5-3.5 1.5-20.6l-.1-20.2-2.4-.3-2.5-.3.1 13.3c.1 7.3-.3 14.6-.7 16.2-1.8 6.3-8.9 10.2-15.6 8.4-5.9-1.5-6.6-4-6.7-21.9l-.1-15.9h-5.1l.3 16.6z"/></svg>