<?xml version="1.0" encoding="utf-8"?>
<!-- Generator: Adobe Illustrator 23.0.0, SVG Export Plug-In . SVG Version: 6.00 Build 0)  -->
<svg version="1.1" id="레이어_1" xmlns="http://www.w3.org/2000/svg" xmlns:xlink="http://www.w3.org/1999/xlink" x="0px"
	 y="0px" viewBox="0 0 512 512" style="enable-background:new 0 0 512 512;" xml:space="preserve">
<style type="text/css">
	.st0{fill:#AACC00;}
	.st1{fill:#FFFFFF;}
</style>
<path class="st0" d="M395.5,234c-0.26,0-0.52,0.01-0.79,0.02C390.73,212.39,371.78,196,349,196c-1.52,0-3.02,0.08-4.51,0.22
	C335.98,174.44,314.8,159,290,159c-2.63,0-5.22,0.19-7.77,0.53C271.74,137.35,249.17,122,223,122c-25.44,0-47.47,14.51-58.32,35.69
	c-21.54,3.57-38.47,20.76-41.64,42.43c-24.29,5.06-42.54,26.58-42.54,52.37c0,29.38,23.68,53.22,53,53.49V306h262
	c19.88,0,36-16.12,36-36S415.38,234,395.5,234z"/>
<path class="st1" d="M347.5,244.5c-8.43,0-15.27,6.73-15.48,15.1l-65.44-11.74c0.27-1.41,0.42-2.87,0.42-4.36
	c0-4.06-1.05-7.86-2.9-11.17l26.73-15.43c3.05,4.58,8.25,7.61,14.16,7.61c9.39,0,17-7.61,17-17c0-9.39-7.61-17-17-17s-17,7.61-17,17
	c0,2.76,0.67,5.36,1.84,7.67l-26.78,15.46c-4.13-6.11-11.13-10.13-19.06-10.13c-5.33,0-10.24,1.82-14.14,4.86l-19.33-19.33
	c2.78-3.24,4.47-7.43,4.47-12.03c0-10.22-8.28-18.5-18.5-18.5S178,183.78,178,194c0,10.22,8.28,18.5,18.5,18.5
	c4.85,0,9.24-1.88,12.54-4.93l19.19,19.19c-4.45,4.19-7.23,10.14-7.23,16.74c0,1.35,0.12,2.68,0.35,3.97l-40.34,12.94
	c-2.29-6.35-8.36-10.9-15.51-10.9c-9.11,0-16.5,7.39-16.5,16.5c0,9.11,7.39,16.5,16.5,16.5S182,275.11,182,266
	c0-1.27-0.16-2.49-0.43-3.68l40.2-12.89c2.62,9.83,11.57,17.07,22.22,17.07c10.52,0,19.38-7.06,22.12-16.69l65.97,11.84
	c0.82,7.79,7.41,13.86,15.41,13.86c8.56,0,15.5-6.94,15.5-15.5C363,251.44,356.06,244.5,347.5,244.5z M305,193.37
	c7.81,0,14.13,6.33,14.13,14.13s-6.33,14.13-14.13,14.13s-14.13-6.33-14.13-14.13S297.19,193.37,305,193.37z M181.12,194
	c0-8.49,6.89-15.38,15.38-15.38s15.38,6.89,15.38,15.38c0,8.49-6.89,15.38-15.38,15.38S181.12,202.49,181.12,194z M165.5,279.72
	c-7.58,0-13.72-6.14-13.72-13.72s6.14-13.72,13.72-13.72s13.72,6.14,13.72,13.72S173.08,279.72,165.5,279.72z M244,262.62
	c-10.56,0-19.12-8.56-19.12-19.12c0-10.56,8.56-19.12,19.12-19.12s19.12,8.56,19.12,19.12C263.12,254.06,254.56,262.62,244,262.62z
	 M347.5,272.89c-7.12,0-12.89-5.77-12.89-12.89c0-7.12,5.77-12.89,12.89-12.89s12.89,5.77,12.89,12.89
	C360.39,267.12,354.62,272.89,347.5,272.89z"/>
<g>
	<path class="st0" d="M171.36,323.1h-12.32v36.3h-3.63v-36.3h-12.32v-3.25h28.27V323.1z"/>
	<path class="st0" d="M197.98,359.4h-3.3v-17.33c0-3.26-0.42-5.52-1.27-6.76c-1.03-1.5-2.95-2.25-5.77-2.25
		c-2.68,0-4.81,0.85-6.41,2.56c-1.59,1.71-2.39,4.02-2.39,6.96v16.83h-3.3v-39.54h3.3v15.46c2.16-3.45,5.32-5.17,9.46-5.17
		c4.03,0,6.88,1.34,8.53,4.01c0.51,0.81,0.83,1.8,0.96,2.97c0.13,1.17,0.19,2.81,0.19,4.9V359.4z"/>
	<path class="st0" d="M208.92,324.8h-3.3v-4.95h3.3V324.8z M208.92,359.4h-3.3v-28.54h3.3V359.4z"/>
	<path class="st0" d="M239,359.4h-3.3v-17.82c0-3.12-0.44-5.26-1.33-6.43c-1.03-1.39-2.97-2.09-5.82-2.09
		c-2.66,0-4.78,0.84-6.37,2.53c-1.59,1.69-2.38,4.02-2.38,6.99v16.83h-3.19v-28.54h3.19v4.56c2.16-3.52,5.32-5.28,9.46-5.28
		c1.98,0,3.71,0.35,5.2,1.04c1.49,0.7,2.61,1.69,3.38,2.97c0.48,0.81,0.79,1.71,0.93,2.72c0.15,1.01,0.22,2.45,0.22,4.32V359.4z"/>
	<path class="st0" d="M269.36,359.4l-3.82,0.02l-10.57-15.9l-5.41,5.19v10.7h-3.3v-39.54h3.3v24.86l14.25-13.86l4.24,0.01
		l-10.8,10.43L269.36,359.4z"/>
	<path class="st0" d="M303.52,359.4h-3.63v-19.2h-22.66v19.2h-3.63v-39.54h3.63v17.1h22.66v-17.1h3.63V359.4z"/>
	<path class="st0" d="M333.93,359.4h-3.19v-4.57c-2.16,3.56-5.35,5.33-9.57,5.33c-6.45,0-9.68-3.37-9.68-10.12v-19.2h3.3v18.42
		c0,2.82,0.53,4.86,1.58,6.11c1.05,1.25,2.87,1.87,5.46,1.87c2.77,0,4.95-0.84,6.54-2.53s2.38-4.02,2.38-6.99v-16.88h3.19V359.4z"/>
	<path class="st0" d="M367.32,345.15c0,4.69-1.15,8.37-3.46,11.03c-2.31,2.66-5.44,3.99-9.4,3.99c-4.51,0-7.77-1.91-9.79-5.72v4.95
		h-3.3v-39.54h3.3v16.06c2.16-3.85,5.5-5.77,10.01-5.77c3.85,0,6.92,1.34,9.21,4.01C366.17,336.83,367.32,340.5,367.32,345.15z
		 M363.91,345.15c0-3.85-0.86-6.83-2.58-8.94c-1.72-2.11-4.11-3.16-7.15-3.16c-3.12,0-5.51,1.04-7.18,3.11
		c-1.67,2.07-2.5,5.07-2.5,8.99c0,3.85,0.84,6.83,2.53,8.94c1.69,2.11,4.07,3.16,7.15,3.16s5.47-1.05,7.18-3.14
		S363.91,349.04,363.91,345.15z"/>
</g>
<g>
</g>
<g>
</g>
<g>
</g>
<g>
</g>
<g>
</g>
<g>
</g>
<g>
</g>
<g>
</g>
<g>
</g>
<g>
</g>
<g>
</g>
<g>
</g>
<g>
</g>
<g>
</g>
<g>
</g>
</svg>
